<?xml version="1.0" encoding="UTF-8"?>
<svg width="128pt" height="128pt" version="1.1" viewBox="0 0 128 128" xmlns="http://www.w3.org/2000/svg">
 <path d="m72.656 50.273c0-1.6836 1.3633-3.0547 3.0547-3.0547h8.8594c1.6836 0 3.0547 1.3633 3.0547 3.0547 0 1.6836-1.3633 3.0547-3.0547 3.0547h-8.8594c-1.6836-0.003906-3.0547-1.3711-3.0547-3.0547zm6.1055 15.605h8.8594c1.6836 0 3.0547-1.3633 3.0547-3.0508 0-1.6836-1.3633-3.0508-3.0547-3.0508h-8.8594c-1.6836 0-3.0547 1.3633-3.0547 3.0508 0.003907 1.6797 1.3711 3.0508 3.0547 3.0508zm-6.1055-25.105h8.8594c1.6836 0 3.0547-1.3633 3.0547-3.0547 0-1.6836-1.3633-3.0547-3.0547-3.0547h-8.8594c-1.6836 0-3.0547 1.3633-3.0547 3.0547 0.003907 1.6914 1.3711 3.0547 3.0547 3.0547zm15.227 63.406c0.25391-4.8242 1.2031-9.4688 2.7031-13.859-10.605-0.14453-21.945-3.5508-28.891-12.07-4.0234-4.8984-5.5938-9.3984-7.1289-13.75-1.7188-4.8242-3.3281-9.3984-8.1914-14.336-3.9492-4.0234-13.129-8.8164-23.227-8.8164-4.6797 0-9.5469 1.0234-14.227 3.6211l-0.035156 0.035156c-0.25391 0.14453-0.47656 0.25391-0.73047 0.44141l-2.5664 3.8047 78.996 53.176c1.0586 0.69531 2.1602 1.2461 3.2891 1.7539zm-38.91-56.609c5.4492 5.5586 7.2812 10.715 9.0352 15.691 1.5 4.2812 2.9258 8.3008 6.5117 12.691 6.2891 7.6797 17.301 10.859 27.539 10.68 2.6719-6.1055 6.5117-11.629 11.227-16.164-2.5234-0.66016-5.2305-1.0234-7.9688-1.0234-1.4648 0-2.8555-0.36328-4.0586-0.98437-1.0234 0.69531-2.2656 1.0938-3.6211 1.0938h-8.8555c-3.7305 0-6.7305-3.0352-6.7305-6.7305 0-2.5234 1.4258-4.7539 3.5117-5.8516-3.6211-0.074218-6.5469-3.0352-6.5469-6.6953 0-2.5586 1.4258-4.7891 3.5117-5.8516-3.6562-0.074219-6.5859-3.0352-6.5859-6.6953 0-3.6953 3-6.7305 6.7305-6.7305h5.3047c-1.6445-2.0508-4.0586-3.4414-6.8008-3.8047l-8.9609-1.0938c-5.0859-0.62109-9.8008-2.6719-13.641-5.7383-3.8398-3.1094-6.8398-7.2383-8.5195-12.105-0.98828-2.7812-4.7188-3.2539-6.3281-0.80469l-21.648 32.145c14.59-5.2305 30.168 1.1719 36.898 7.9766zm58.219 24.176c-9.2891 8.2656-15.285 20.227-15.691 33.57 1.3906 0.29688 2.7812 0.51172 4.2031 0.51172h32.293v-3.5469c0-13.898-8.6289-25.746-20.809-30.535zm-24.648 33.715-78.988-53.176-2.4141 3.5859c0 0.035156-0.035156 0.035156-0.035156 0.074218-2.0117 3.0352-1.1719 7.0586 1.7891 9.1055l73.578 49.516c7.3867 4.9766 15.945 7.5703 24.828 7.5703h22.422c1.4648 0 2.8516-0.47656 3.9492-1.3906 0.25391-0.57812 0.32812-1.1641 0.32812-1.7891v-9.4688h-32.289c-4.6836 0-9.2539-1.3906-13.168-4.0234z" fill="#fff"/>
</svg>
