<?xml version="1.0" encoding="UTF-8"?>
<svg width="1200pt" height="1200pt" version="1.1" viewBox="0 0 1200 1200" xmlns="http://www.w3.org/2000/svg">
 <path d="m1162.4 1064.6h-449.9c-6.5508 0-12.852-2.6484-17.602-7.25l-637.5-626c-4.75-4.6992-7.4492-11.301-7.3984-18.051s2.9492-13.25 7.8008-17.801c1.8516-1.8008 190.15-180.15 221.25-211.25 40.301-40.301 76.301-48.75 99.551-48.75 26.852 0 52.051 11.25 70.898 31.551 23.852 25.699 35.75 63.199 32.75 103-2.3516 30.5 10.551 61.352 38.398 91.25 57.148 61.449 157.8 99.551 218.55 99.551l5.8516-0.14844c10.25 0.60156 19.699 5.3008 23.898 14.75 20.852 46.301 82.801 183.75 135.7 339.05h127.75c85.551 0 155.2 69.551 155.2 155.1v69.898c-0.19922 13.852-11.449 25.102-25.199 25.102zm-439.7-50h414.7v-44.898c0-57.898-47.051-105.1-105.1-105.1h-145.7c-10.75 0-20.301-6.9492-23.852-17.102-48.551-145.7-106.95-278.6-132.9-336.8-72.949-3.3516-181.7-46-246-115.4-37-40.148-55-84.648-51.551-129.1 1.9492-25.551-5.3008-49.801-19.602-65.148-6.5-7.1016-17.699-15.551-34.199-15.551-19.75 0-42 11.75-64.199 34.102-26 26.051-154.35 147.8-203.25 194.3l611.65 600.7z" fill="#fff"/>
 <path d="m1159.7 968.85-435.25-0.10156-595.35-597.55 35.449-35.25 580.7 582.8 414.45 0.10156z" fill="#fff"/>
 <path d="m482.35 716.2c-10.148 0-19.801-6.25-23.449-16.301-4.8984-13 1.6992-27.352 14.75-32.148l305.25-113c13.051-4.8984 27.352 1.8516 32.25 14.75 4.8008 13.102-1.8516 27.449-14.75 32.25l-305.35 112.9c-2.8008 1.0508-5.8008 1.5508-8.6992 1.5508z" fill="#fff"/>
 <path d="m553.1 786.9c-10.25 0-19.801-6.3516-23.551-16.5-4.6992-13 2.1016-27.352 15.148-32.148l268.55-96.699c12.898-4.5 27.25 2.0508 31.949 15.148 4.8008 13-2.0508 27.25-15.051 31.949l-268.55 96.801c-2.8516 1-5.6992 1.4492-8.5 1.4492z" fill="#fff"/>
 <path d="m623.8 857.7c-10.051 0-19.602-6.1484-23.398-16.199-4.8984-12.898 1.6016-27.352 14.551-32.25l193.05-73.148c12.852-4.8984 27.301 1.5508 32.301 14.551 4.8984 12.898-1.6484 27.352-14.551 32.25l-193.05 73.148c-2.9492 1.1992-6 1.6484-8.8984 1.6484z" fill="#fff"/>
 <path d="m137.45 714.55h-100c-13.75 0-25-11.25-25-25s11.25-25 25-25h100c13.75 0 25 11.25 25 25s-11.25 25-25 25z" fill="#fff"/>
 <path d="m237.45 814.55h-200c-13.75 0-25-11.25-25-25s11.25-25 25-25h200c13.75 0 25 11.25 25 25s-11.25 25-25 25z" fill="#fff"/>
 <path d="m337.45 914.55h-300c-13.75 0-25-11.25-25-25s11.25-25 25-25h300c13.75 0 25 11.25 25 25s-11.25 25-25 25z" fill="#fff"/>
</svg>
